<svg width="64" height="64" viewBox="0 0 64 64" fill="none" xmlns="http://www.w3.org/2000/svg">
<g clip-path="url(#clip0_111_80)">
<path d="M55.4579 38.2418C54.9588 38.5857 54.3763 38.7886 53.7715 38.8292C53.1668 38.8698 52.5624 38.7466 52.0218 38.4725C50.7529 37.7556 50.0689 36.0747 50.0689 33.784V26.7635C50.0689 23.3933 48.7341 20.9955 46.501 20.3445C42.7271 19.2404 39.909 23.863 38.8214 25.6016L32.147 36.4043V23.2203C32.0728 20.1797 31.084 18.3587 29.2135 17.8149C27.9775 17.4523 26.1235 17.6006 24.319 20.3528L9.39635 44.3064C7.41083 40.5077 6.38132 36.2822 6.39699 31.9959C6.39699 17.5594 17.933 5.81743 32.147 5.81743C46.3609 5.81743 57.9381 17.5594 57.9381 31.9959V32.07C57.9381 32.07 57.9381 32.1195 57.9381 32.1442C58.0782 34.9376 57.1718 37.1624 55.4661 38.2418H55.4579ZM63.6979 32.0041V31.864C63.5825 14.2717 49.4757 0 32.147 0C14.8183 0 0.628998 14.3541 0.628998 31.9959C0.628998 49.6377 14.7688 64 32.147 64C40.1173 63.9996 47.7845 60.9446 53.5709 55.4634C54.1326 54.9342 54.4631 54.205 54.4909 53.4338C54.5187 52.6626 54.2414 51.9116 53.7193 51.3434C53.4694 51.067 53.1673 50.8427 52.8304 50.6835C52.4936 50.5243 52.1285 50.4333 51.7564 50.4157C51.3842 50.3981 51.0122 50.4542 50.6618 50.5809C50.3114 50.7076 49.9895 50.9023 49.7146 51.1539C47.2234 53.517 44.2802 55.3524 41.062 56.5498C37.8437 57.7472 34.4167 58.2819 30.9866 58.1218C27.5566 57.9617 24.1942 57.1102 21.1015 55.6183C18.0087 54.1264 15.2493 52.0249 12.989 49.4399L26.4202 27.8512V37.8133C26.4202 42.6007 28.2742 44.1499 29.8315 44.6031C31.3889 45.0563 33.7702 44.7431 36.267 40.6891L43.6829 28.6834C43.9137 28.2961 44.1361 27.9665 44.3339 27.6781V33.784C44.3339 38.2583 46.1302 41.8344 49.2779 43.5978C50.7092 44.3705 52.322 44.7437 53.9472 44.6785C55.5725 44.6133 57.1502 44.1119 58.5149 43.227C61.9757 40.9775 63.8627 36.9069 63.6649 32.0041H63.6979Z" fill="#F4FAFA"/>
</g>
<defs>
<clipPath id="clip0_111_80">
<rect width="63.0524" height="64" fill="white" transform="translate(0.628998)"/>
</clipPath>
</defs>
</svg>
