<svg xmlns="http://www.w3.org/2000/svg" width="65" height="64" viewBox="0 0 65 64" fill="none">
  <g clip-path="url(#clip0_111_93)">
    <path fill-rule="evenodd" clip-rule="evenodd" d="M12.371 10C11.371 4.8 15.371 0 20.571 0C25.171 0 28.971 3.8 28.971 8.4V18.8C30.171 18.8 31.371 18.6 32.571 18.6C33.771 18.6 34.771 18.6 35.971 18.8V8.4C35.971 3.8 39.771 0 44.371 0C49.571 0 53.571 4.8 52.771 10L50.571 22.2C58.371 25.6 64.371 31.6 64.371 39V43.6C64.371 49.8 60.371 55 54.571 58.4C48.771 62 41.171 64 32.571 64C23.971 64 16.371 62 10.571 58.4C4.97098 55 0.970978 49.8 0.970978 43.6V39C0.970978 31.6 6.77098 25.6 14.571 22.2L12.371 10ZM47.571 23.8L50.171 9.4C50.771 5.8 48.171 2.4 44.371 2.4C41.171 2.4 38.571 5 38.571 8.2V21.4C37.771 21.2 36.771 21.2 35.971 21.2C34.771 21.2 33.771 21 32.571 21C31.371 21 30.171 21 28.971 21.2C28.171 21.2 27.171 21.4 26.371 21.4V8.4C26.371 5.2 23.771 2.6 20.571 2.6C16.971 2.6 14.171 6 14.971 9.6L17.571 24C9.17098 27.2 3.57098 32.8 3.57098 39.2V43.8C3.57098 53.6 16.571 61.6 32.571 61.6C48.571 61.6 61.571 53.6 61.571 43.8V39.2C61.771 32.6 56.171 27 47.571 23.8Z" fill="#F4FAFA"/>
    <path d="M24.5711 37.8C24.5711 40.4 23.1711 42.6 21.3711 42.6C19.5711 42.6 18.1711 40.4 18.1711 37.8C18.1711 35.2 19.5711 33 21.3711 33C23.1711 33 24.5711 35.2 24.5711 37.8Z" fill="#F4FAFA"/>
    <path d="M46.7711 37.8C46.7711 40.4 45.3711 42.6 43.5711 42.6C41.7711 42.6 40.3711 40.4 40.3711 37.8C40.3711 35.2 41.7711 33 43.5711 33C45.3711 33 46.7711 35.2 46.7711 37.8Z" fill="#F4FAFA"/>
  </g>
  <defs>
    <clipPath id="clip0_111_93">
      <rect width="63.4" height="64" fill="white" transform="translate(0.970978)"/>
    </clipPath>
  </defs>
</svg>