<svg width="26" height="26" viewBox="0 0 26 26" fill="none" xmlns="http://www.w3.org/2000/svg">
<path d="M15.2119 13.2604C15.4805 12.8194 15.7581 12.3634 16.0322 11.8932C16.9499 10.32 17.1183 8.73494 16.5329 7.18181C15.3517 4.04812 11.4032 2.13879 10.4891 1.83416L9.84629 1.61975L8.84307 3.62659L9.3272 4.02209C9.33262 4.02644 9.87036 4.49631 9.9062 5.20862C9.93682 5.81667 9.60347 6.47375 8.91567 7.16174C8.43804 7.63933 7.91382 8.10115 7.35879 8.59001C5.02354 10.6466 2.37671 12.9781 2.37671 17.389C2.37671 17.4496 2.37728 17.5098 2.37842 17.5697C2.39534 18.543 2.60439 19.5034 2.99357 20.3957C3.38274 21.2881 3.94437 22.0947 4.64619 22.7694C6.05548 24.1401 7.94507 24.9052 9.91104 24.901H14.4081L13.853 23.7744C11.5975 19.1968 13.1925 16.577 15.2119 13.2604ZM9.91104 23.3385C6.67861 23.3385 4.00039 20.7376 3.94062 17.5407C3.93971 17.4904 3.93924 17.4398 3.93921 17.389C3.93921 13.684 6.20269 11.6901 8.39165 9.76204C8.94043 9.27864 9.50796 8.77874 10.0205 8.26609C11.0339 7.25276 11.5205 6.19748 11.4667 5.12976C11.4433 4.67727 11.3232 4.23506 11.1145 3.83289C12.4739 4.57561 14.4115 5.98391 15.0709 7.73313C15.4881 8.83982 15.3611 9.94309 14.6827 11.1061C14.4158 11.5636 14.142 12.0132 13.8773 12.448C11.9398 15.6301 10.1018 18.6482 11.951 23.3385H9.91104Z" fill="#8A8A86"/>
<path d="M22.8827 17.3389C22.8696 17.2873 22.8561 17.2355 22.8419 17.1834C22.2782 15.1164 19.1575 12.4587 18.8036 12.1625L18.0928 11.5677L17.6267 12.3688C16.5645 14.195 15.653 15.8606 15.2556 17.7503C14.8025 19.9053 15.1075 22.0954 16.1882 24.4461L16.3973 24.901H16.9284C17.8639 24.9037 18.7876 24.6916 19.6282 24.281C20.4689 23.8704 21.204 23.2723 21.777 22.5328C22.3466 21.8095 22.7424 20.965 22.9341 20.0645C23.1258 19.164 23.1082 18.2316 22.8827 17.3389ZM20.5448 21.5715C20.1661 22.0604 19.6918 22.4671 19.1509 22.7668C18.6099 23.0665 18.0136 23.2529 17.3983 23.3147C15.8582 19.6086 16.7669 17.0825 18.5033 13.9829C19.6577 15.0569 21.0645 16.6045 21.3345 17.5943C21.3458 17.6361 21.3567 17.6777 21.3671 17.719C21.5341 18.3813 21.5467 19.073 21.4042 19.7409C21.2616 20.4089 20.9676 21.0351 20.5448 21.5715Z" fill="#8A8A86"/>
</svg>
