<svg width="25" height="23" viewBox="0 0 25 23" fill="none" xmlns="http://www.w3.org/2000/svg">
<g clip-path="url(#clip0_33_229)">
<path d="M11.0326 16.7383V19.2201H7.35417V21.3555H17.6458V19.2201H13.9857V16.7383M6.58333 3.64453H18.418V10.3047C18.418 13.487 15.8346 16.0716 12.651 16.0716H12.349C9.16667 16.0716 6.58203 13.4883 6.58203 10.3047V3.64453H6.58333Z" stroke="#8A8A86" stroke-width="1.5" stroke-linecap="round" stroke-linejoin="round"/>
<path d="M6.48705 5.91537H2.91804C2.91804 5.91537 2.0808 11.7188 7.04304 12.5938M18.5131 5.91537H22.0821C22.0821 5.91537 22.9193 11.7188 17.9571 12.5938" stroke="#8A8A86" stroke-width="1.5" stroke-linecap="round" stroke-linejoin="round"/>
<path d="M12.5001 6.40884L13.5066 8.44791L15.7553 8.77473L14.1277 10.3607L14.5118 12.6016L12.5001 11.543L10.4884 12.6016L10.8725 10.3607L9.24487 8.77473L11.4936 8.44791L12.5001 6.40884Z" stroke="#8A8A86" stroke-width="1.5" stroke-linejoin="round"/>
</g>
<defs>
<clipPath id="clip0_33_229">
<rect width="25" height="23" fill="white"/>
</clipPath>
</defs>
</svg>
