<svg width="25" height="25" viewBox="0 0 25 25" fill="none" xmlns="http://www.w3.org/2000/svg">
<g clip-path="url(#clip0_14_345)">
<path d="M19.5312 12.5H13.2812V9.375H11.7188V12.5H5.46875C5.0545 12.5005 4.65734 12.6652 4.36442 12.9582C4.0715 13.2511 3.90673 13.6482 3.90625 14.0625V17.1875H5.46875V14.0625H11.7188V17.1875H13.2812V14.0625H19.5312V17.1875H21.0938V14.0625C21.0933 13.6482 20.9285 13.2511 20.6356 12.9582C20.3427 12.6652 19.9455 12.5005 19.5312 12.5Z" fill="#8A8A86"/>
<path d="M15.625 7.8125V1.5625H9.375V7.8125H15.625ZM10.9375 6.25V3.125H14.0625V6.25H10.9375Z" fill="#8A8A86"/>
<path d="M20.3124 18.75C19.8293 18.7515 19.3585 18.9024 18.9646 19.1822C18.5708 19.462 18.2731 19.8568 18.1127 20.3125H14.6997C14.5405 19.856 14.2432 19.4603 13.8491 19.1803C13.4549 18.9004 12.9834 18.7499 12.4999 18.7499C12.0165 18.7499 11.545 18.9004 11.1508 19.1803C10.7567 19.4603 10.4594 19.856 10.3002 20.3125H6.8872C6.70291 19.7912 6.34027 19.3519 5.86339 19.0722C5.3865 18.7924 4.82608 18.6903 4.28116 18.7838C3.73624 18.8773 3.24192 19.1604 2.88555 19.5831C2.52919 20.0058 2.33374 20.5409 2.33374 21.0938C2.33374 21.6466 2.52919 22.1817 2.88555 22.6044C3.24192 23.0271 3.73624 23.3103 4.28116 23.4038C4.82608 23.4972 5.3865 23.3951 5.86339 23.1153C6.34027 22.8356 6.70291 22.3963 6.8872 21.875H10.3002C10.4594 22.3315 10.7567 22.7272 11.1508 23.0072C11.545 23.2872 12.0165 23.4376 12.4999 23.4376C12.9834 23.4376 13.4549 23.2872 13.8491 23.0072C14.2432 22.7272 14.5405 22.3315 14.6997 21.875H18.1127C18.2566 22.279 18.5089 22.6356 18.8418 22.9059C19.1747 23.1762 19.5755 23.3498 20.0005 23.4078C20.4254 23.4657 20.858 23.4057 21.2512 23.2344C21.6443 23.0631 21.9828 22.787 22.2297 22.4363C22.4765 22.0856 22.6222 21.6739 22.6509 21.246C22.6796 20.8181 22.5901 20.3905 22.3922 20.0101C22.1943 19.6296 21.8957 19.3108 21.5289 19.0886C21.1621 18.8664 20.7413 18.7493 20.3124 18.75ZM4.68743 21.875C4.53292 21.875 4.38187 21.8292 4.25339 21.7433C4.12492 21.6575 4.02478 21.5355 3.96565 21.3927C3.90652 21.25 3.89105 21.0929 3.92119 20.9413C3.95134 20.7898 4.02575 20.6506 4.13501 20.5413C4.24427 20.4321 4.38347 20.3577 4.53502 20.3275C4.68657 20.2974 4.84365 20.3128 4.9864 20.372C5.12916 20.4311 5.25117 20.5312 5.33702 20.6597C5.42286 20.7882 5.46868 20.9392 5.46868 21.0938C5.4685 21.3009 5.38613 21.4995 5.23965 21.646C5.09318 21.7924 4.89458 21.8748 4.68743 21.875ZM12.4999 21.875C12.3454 21.875 12.1944 21.8292 12.0659 21.7433C11.9374 21.6575 11.8373 21.5355 11.7782 21.3927C11.719 21.25 11.7036 21.0929 11.7337 20.9413C11.7638 20.7898 11.8382 20.6506 11.9475 20.5413C12.0568 20.4321 12.196 20.3577 12.3475 20.3275C12.4991 20.2974 12.6561 20.3128 12.7989 20.372C12.9417 20.4311 13.0637 20.5312 13.1495 20.6597C13.2354 20.7882 13.2812 20.9392 13.2812 21.0938C13.281 21.3009 13.1986 21.4995 13.0522 21.646C12.9057 21.7924 12.7071 21.8748 12.4999 21.875ZM20.3124 21.875C20.1579 21.875 20.0069 21.8292 19.8784 21.7433C19.7499 21.6575 19.6498 21.5355 19.5907 21.3927C19.5315 21.25 19.5161 21.0929 19.5462 20.9413C19.5763 20.7898 19.6507 20.6506 19.76 20.5413C19.8693 20.4321 20.0085 20.3577 20.16 20.3275C20.3116 20.2974 20.4687 20.3128 20.6114 20.372C20.7542 20.4311 20.8762 20.5312 20.962 20.6597C21.0479 20.7882 21.0937 20.9392 21.0937 21.0938C21.0935 21.3009 21.0111 21.4995 20.8647 21.646C20.7182 21.7924 20.5196 21.8748 20.3124 21.875Z" fill="#8A8A86"/>
</g>
<defs>
<clipPath id="clip0_14_345">
<rect width="25" height="25" fill="white"/>
</clipPath>
</defs>
</svg>
